<svg
    xmlns="http://www.w3.org/2000/svg"
    width="50px"
    height="50px"
    viewBox="0 0 24 24"
    class="stroke-zinc-400 fill-none group-hover:fill-zinc-800 group-active:stroke-zinc-200 group-active:fill-zinc-600 group-active:duration-0 duration-300"
  >
    <path
      d="M12 22C17.5 22 22 17.5 22 12C22 6.5 17.5 2 12 2C6.5 2 2 6.5 2 12C2 17.5 6.5 22 12 22Z"
      stroke-width="1.5"
    ></path>
    <path d="M8 12H16" stroke-width="1.5"></path>
    <path d="M12 16V8" stroke-width="1.5"></path>
  </svg>






  <!-- Home -->

   <svg fill="currentColor" viewBox="0 0 20 20" class="w-5 h-5" xmlns="http://www.w3.org/2000/svg">
        <path d="M10.707 2.293a1 1 0 00-1.414 0l-7 7a1 1 0 001.414 1.414L4 10.414V17a1 1 0 001 1h2a1 1 0 001-1v-2a1 1 0 011-1h2a1 1 0 011 1v2a1 1 0 001 1h2a1 1 0 001-1v-6.586l.293.293a1 1 0 001.414-1.414l-7-7z">
        </path>
      </svg>